REM GENRE Jazz
REM DATE 2003
REM DISCID 0F12BF13
REM COMMENT "ExactAudioCopy v0.99pb4"
PERFORMER "Upojenie"
TITLE "Anna Maria Jopek & Friends With Pat Metheny"
FILE "Upojenie - Anna Maria Jopek & Friends With Pat Metheny.flac" WAVE
  TRACK 01 AUDIO
    TITLE "Cichy zapada zmrok"
    PERFORMER "Upojenie"
    FLAGS DCP
    INDEX 01 00:00:00
  TRACK 02 AUDIO
    TITLE "Przyp³yw, odp³yw, oddech czasu"
    PERFORMER "Upojenie"
    FLAGS DCP
    INDEX 01 03:32:47
  TRACK 03 AUDIO
    TITLE "Tam, gdzie nie siêga wzrok"
    PERFORMER "Upojenie"
    FLAGS DCP
    INDEX 01 08:23:10
  TRACK 04 AUDIO
    TITLE "Biel"
    PERFORMER "Upojenie"
    FLAGS DCP
    INDEX 01 12:13:70
  TRACK 05 AUDIO
    TITLE "Czarne s³owa"
    PERFORMER "Upojenie"
    FLAGS DCP
    INDEX 01 15:38:65
  TRACK 06 AUDIO
    TITLE "Letter From Home"
    PERFORMER "Upojenie"
    FLAGS DCP
    INDEX 01 20:55:47
  TRACK 07 AUDIO
    TITLE "Are You Going With Me?"
    PERFORMER "Upojenie"
    FLAGS DCP
    INDEX 01 23:41:70
  TRACK 08 AUDIO
    TITLE "Zupe³nie inna ja"
    PERFORMER "Upojenie"
    FLAGS DCP
    INDEX 01 32:21:52
  TRACK 09 AUDIO
    TITLE "Mania mienia"
    PERFORMER "Upojenie"
    FLAGS DCP
    INDEX 01 36:19:25
  TRACK 10 AUDIO
    TITLE "By on by³ tu"
    PERFORMER "Upojenie"
    FLAGS DCP
    INDEX 01 40:02:65
  TRACK 11 AUDIO
    TITLE "Upojenie"
    PERFORMER "Upojenie"
    FLAGS DCP
    INDEX 01 47:01:30
  TRACK 12 AUDIO
    TITLE "Piosenka dla Jasia"
    PERFORMER "Upojenie"
    FLAGS DCP
    INDEX 01 51:51:02
  TRACK 13 AUDIO
    TITLE "Me jedyne niebo"
    PERFORMER "Upojenie"
    FLAGS DCP
    INDEX 01 55:45:07
  TRACK 14 AUDIO
    TITLE "Polskie drogi"
    PERFORMER "Upojenie"
    FLAGS DCP
    INDEX 01 59:07:52
  TRACK 15 AUDIO
    TITLE "Je¿eli kochasz, to nie pamiêtaj mnie"
    PERFORMER "Upojenie"
    FLAGS DCP
    INDEX 01 61:34:25
  TRACK 16 AUDIO
    TITLE "Na d³oni"
    PERFORMER "Upojenie"
    FLAGS DCP
    INDEX 01 66:05:30
  TRACK 17 AUDIO
    TITLE "Nienasycenie"
    PERFORMER "Upojenie"
    FLAGS DCP
    INDEX 01 69:30:22
  TRACK 18 AUDIO
    TITLE "I pozostanie tajemnica"
    PERFORMER "Upojenie"
    FLAGS DCP
    INDEX 01 74:01:15
  TRACK 19 AUDIO
    TITLE "Licho"
    PERFORMER "Upojenie"
    FLAGS DCP
    INDEX 01 77:15:12
